<svg width="114" height="115" viewBox="0 0 114 115" fill="none" xmlns="http://www.w3.org/2000/svg">
<path d="M10.5125 2.51367H103.485C108.455 2.51367 112.485 6.54311 112.485 11.5137V104.486C112.485 109.456 108.455 113.486 103.485 113.486H10.5125C5.54195 113.486 1.51251 109.456 1.51251 104.486V11.5137C1.51251 6.54311 5.54195 2.51367 10.5125 2.51367Z" fill="#294E3E" stroke="#07613A" stroke-width="2"/>
<mask id="path-2-outside-1_250_901" maskUnits="userSpaceOnUse" x="22.9986" y="28" width="62" height="65" fill="black">
<rect fill="white" x="22.9986" y="28" width="62" height="65"/>
<path d="M71.9746 44.824C69.2226 42.84 66.8546 41.4 64.8706 40.504C62.8866 39.544 60.5826 39.064 57.9586 39.064C52.7106 39.064 48.1986 40.408 44.4226 43.096C41.5426 45.208 39.3986 47.96 37.9906 51.352C36.5826 54.744 35.8786 58.552 35.8786 62.776C35.8786 66.808 36.8066 70.36 38.6626 73.432C40.5186 76.44 42.9186 78.744 45.8626 80.344C48.8066 81.944 51.8786 82.744 55.0786 82.744C58.2786 82.744 61.0306 82.264 63.3346 81.304C65.7026 80.28 67.5906 78.968 68.9986 77.368C71.1746 74.616 72.2626 70.968 72.2626 66.424C72.2626 65.784 71.7506 65.336 70.7266 65.08C69.7026 64.824 68.2306 64.696 66.3106 64.696L59.3986 64.792C57.5426 64.792 56.0706 64.44 54.9826 63.736C53.8946 63.032 53.3506 62.136 53.3506 61.048C53.3506 59.512 53.8626 58.392 54.8866 57.688C55.9106 56.92 57.2866 56.536 59.0146 56.536C61.0626 56.536 63.8146 56.664 67.2706 56.92C70.7266 57.176 73.2226 57.304 74.7586 57.304C76.9986 57.304 78.7906 58.008 80.1346 59.416C81.5426 60.824 82.2466 62.872 82.2466 65.56C82.2466 68.056 81.7026 70.968 80.6146 74.296C79.5266 77.624 77.9906 80.6 76.0066 83.224C74.0866 85.784 71.2386 87.736 67.4626 89.08C63.7506 90.36 59.6226 91 55.0786 91C51.3026 91 47.6546 90.392 44.1346 89.176C40.6146 87.96 37.6706 86.264 35.3026 84.088C32.3586 81.336 30.0226 78.072 28.2946 74.296C26.6306 70.456 25.7986 66.648 25.7986 62.872C25.7986 57.368 27.0786 52.024 29.6386 46.84C32.2626 41.592 35.7826 37.528 40.1986 34.648C42.1186 33.368 44.8066 32.312 48.2626 31.48C51.7186 30.648 54.8866 30.232 57.7666 30.232C62.2466 30.232 66.1826 30.936 69.5746 32.344C72.9666 33.688 75.5586 35.64 77.3506 38.2C78.1186 39.352 78.5026 40.376 78.5026 41.272C78.5026 42.296 78.0546 43.256 77.1586 44.152C76.2626 45.048 75.3666 45.496 74.4706 45.496C74.0866 45.496 73.6386 45.432 73.1266 45.304C72.6146 45.176 72.2306 45.016 71.9746 44.824Z"/>
</mask>
<path d="M71.9746 44.824C69.2226 42.84 66.8546 41.4 64.8706 40.504C62.8866 39.544 60.5826 39.064 57.9586 39.064C52.7106 39.064 48.1986 40.408 44.4226 43.096C41.5426 45.208 39.3986 47.96 37.9906 51.352C36.5826 54.744 35.8786 58.552 35.8786 62.776C35.8786 66.808 36.8066 70.36 38.6626 73.432C40.5186 76.44 42.9186 78.744 45.8626 80.344C48.8066 81.944 51.8786 82.744 55.0786 82.744C58.2786 82.744 61.0306 82.264 63.3346 81.304C65.7026 80.28 67.5906 78.968 68.9986 77.368C71.1746 74.616 72.2626 70.968 72.2626 66.424C72.2626 65.784 71.7506 65.336 70.7266 65.08C69.7026 64.824 68.2306 64.696 66.3106 64.696L59.3986 64.792C57.5426 64.792 56.0706 64.44 54.9826 63.736C53.8946 63.032 53.3506 62.136 53.3506 61.048C53.3506 59.512 53.8626 58.392 54.8866 57.688C55.9106 56.92 57.2866 56.536 59.0146 56.536C61.0626 56.536 63.8146 56.664 67.2706 56.92C70.7266 57.176 73.2226 57.304 74.7586 57.304C76.9986 57.304 78.7906 58.008 80.1346 59.416C81.5426 60.824 82.2466 62.872 82.2466 65.56C82.2466 68.056 81.7026 70.968 80.6146 74.296C79.5266 77.624 77.9906 80.6 76.0066 83.224C74.0866 85.784 71.2386 87.736 67.4626 89.08C63.7506 90.36 59.6226 91 55.0786 91C51.3026 91 47.6546 90.392 44.1346 89.176C40.6146 87.96 37.6706 86.264 35.3026 84.088C32.3586 81.336 30.0226 78.072 28.2946 74.296C26.6306 70.456 25.7986 66.648 25.7986 62.872C25.7986 57.368 27.0786 52.024 29.6386 46.84C32.2626 41.592 35.7826 37.528 40.1986 34.648C42.1186 33.368 44.8066 32.312 48.2626 31.48C51.7186 30.648 54.8866 30.232 57.7666 30.232C62.2466 30.232 66.1826 30.936 69.5746 32.344C72.9666 33.688 75.5586 35.64 77.3506 38.2C78.1186 39.352 78.5026 40.376 78.5026 41.272C78.5026 42.296 78.0546 43.256 77.1586 44.152C76.2626 45.048 75.3666 45.496 74.4706 45.496C74.0866 45.496 73.6386 45.432 73.1266 45.304C72.6146 45.176 72.2306 45.016 71.9746 44.824Z" fill="white"/>
<path d="M71.9746 44.824L73.1746 43.224L73.1595 43.2127L73.1442 43.2016L71.9746 44.824ZM64.8706 40.504L63.9995 42.3043L64.0233 42.3158L64.0474 42.3267L64.8706 40.504ZM44.4226 43.096L43.2627 41.4667L43.2512 41.4748L43.2399 41.4832L44.4226 43.096ZM37.9906 51.352L36.1434 50.5852L36.1434 50.5852L37.9906 51.352ZM38.6626 73.432L36.9508 74.4662L36.9556 74.4742L36.9605 74.4822L38.6626 73.432ZM45.8626 80.344L44.9076 82.1012L45.8626 80.344ZM63.3346 81.304L64.1038 83.1502L64.1162 83.145L64.1284 83.1397L63.3346 81.304ZM68.9986 77.368L70.5 78.6893L70.5348 78.6497L70.5674 78.6085L68.9986 77.368ZM70.7266 65.08L70.2415 67.0203L70.2415 67.0203L70.7266 65.08ZM66.3106 64.696V62.696H66.2967L66.2828 62.6962L66.3106 64.696ZM59.3986 64.792V66.792H59.4125L59.4264 66.7918L59.3986 64.792ZM54.9826 63.736L53.8961 65.4151L53.8961 65.4151L54.9826 63.736ZM54.8866 57.688L56.0197 59.3361L56.0536 59.3127L56.0866 59.288L54.8866 57.688ZM80.1346 59.416L78.6879 60.797L78.7039 60.8138L78.7204 60.8302L80.1346 59.416ZM80.6146 74.296L82.5156 74.9175L82.5156 74.9175L80.6146 74.296ZM76.0066 83.224L74.4113 82.0178L74.4066 82.024L76.0066 83.224ZM67.4626 89.08L68.1146 90.9707L68.1239 90.9675L68.1332 90.9642L67.4626 89.08ZM44.1346 89.176L44.7876 87.2856L44.7876 87.2856L44.1346 89.176ZM35.3026 84.088L33.9368 85.5491L33.9431 85.5549L33.9493 85.5607L35.3026 84.088ZM28.2946 74.296L26.4595 75.0912L26.4675 75.1098L26.476 75.1282L28.2946 74.296ZM29.6386 46.84L27.8497 45.9456L27.8453 45.9544L29.6386 46.84ZM40.1986 34.648L41.2911 36.3232L41.2996 36.3177L41.308 36.3121L40.1986 34.648ZM48.2626 31.48L48.7307 33.4244L48.7307 33.4244L48.2626 31.48ZM69.5746 32.344L68.8078 34.1912L68.8228 34.1974L68.8379 34.2034L69.5746 32.344ZM77.3506 38.2L79.0147 37.0906L79.0021 37.0717L78.9891 37.0531L77.3506 38.2ZM73.1266 45.304L72.6415 47.2443L72.6415 47.2443L73.1266 45.304ZM73.1442 43.2016C70.3366 41.1776 67.8474 39.6539 65.6938 38.6813L64.0474 42.3267C65.8618 43.1461 68.1086 44.5024 70.805 46.4463L73.1442 43.2016ZM65.7417 38.7037C63.4392 37.5895 60.8274 37.064 57.9586 37.064V41.064C60.3378 41.064 62.334 41.4985 63.9995 42.3043L65.7417 38.7037ZM57.9586 37.064C52.352 37.064 47.4212 38.5064 43.2627 41.4667L45.5825 44.7253C48.976 42.3096 53.0691 41.064 57.9586 41.064V37.064ZM43.2399 41.4832C40.0566 43.8176 37.6873 46.8659 36.1434 50.5852L39.8378 52.1188C41.1099 49.0541 43.0286 46.5984 45.6053 44.7088L43.2399 41.4832ZM36.1434 50.5852C34.6205 54.254 33.8786 58.328 33.8786 62.776H37.8786C37.8786 58.776 38.5447 55.234 39.8378 52.1188L36.1434 50.5852ZM33.8786 62.776C33.8786 67.1264 34.8837 71.045 36.9508 74.4662L40.3744 72.3978C38.7295 69.675 37.8786 66.4896 37.8786 62.776H33.8786ZM36.9605 74.4822C38.9892 77.7701 41.6402 80.3255 44.9076 82.1012L46.8176 78.5868C44.197 77.1625 42.048 75.1099 40.3647 72.3818L36.9605 74.4822ZM44.9076 82.1012C48.1304 83.8528 51.5291 84.744 55.0786 84.744V80.744C52.2281 80.744 49.4828 80.0352 46.8176 78.5868L44.9076 82.1012ZM55.0786 84.744C58.4713 84.744 61.4979 84.236 64.1038 83.1502L62.5654 79.4578C60.5633 80.292 58.0859 80.744 55.0786 80.744V84.744ZM64.1284 83.1397C66.7113 82.0228 68.8603 80.5526 70.5 78.6893L67.4972 76.0467C66.3209 77.3834 64.6939 78.5372 62.5408 79.4683L64.1284 83.1397ZM70.5674 78.6085C73.0959 75.4108 74.2626 71.284 74.2626 66.424H70.2626C70.2626 70.652 69.2533 73.8212 67.4298 76.1275L70.5674 78.6085ZM74.2626 66.424C74.2626 65.4873 73.8546 64.6795 73.1956 64.1028C72.6048 63.5859 71.8779 63.3063 71.2117 63.1397L70.2415 67.0203C70.4061 67.0614 70.509 67.1003 70.5653 67.1261C70.6223 67.1523 70.609 67.1546 70.5616 67.1132C70.5094 67.0674 70.4249 66.9759 70.357 66.8316C70.2876 66.6842 70.2626 66.539 70.2626 66.424H74.2626ZM71.2117 63.1397C69.9494 62.8241 68.2841 62.696 66.3106 62.696V66.696C68.1771 66.696 69.4558 66.8239 70.2415 67.0203L71.2117 63.1397ZM66.2828 62.6962L59.3708 62.7922L59.4264 66.7918L66.3384 66.6958L66.2828 62.6962ZM59.3986 62.792C57.7695 62.792 56.722 62.4793 56.0691 62.0569L53.8961 65.4151C55.4192 66.4007 57.3157 66.792 59.3986 66.792V62.792ZM56.0691 62.0569C55.4246 61.6398 55.3506 61.32 55.3506 61.048H51.3506C51.3506 62.952 52.3646 64.4241 53.8961 65.4151L56.0691 62.0569ZM55.3506 61.048C55.3506 59.9947 55.6688 59.5773 56.0197 59.3361L53.7535 56.0399C52.0564 57.2067 51.3506 59.0293 51.3506 61.048H55.3506ZM56.0866 59.288C56.6612 58.857 57.5696 58.536 59.0146 58.536V54.536C57.0036 54.536 55.16 54.983 53.6866 56.088L56.0866 59.288ZM59.0146 58.536C60.9912 58.536 63.6875 58.6601 67.1229 58.9145L67.4183 54.9255C63.9417 54.6679 61.134 54.536 59.0146 54.536V58.536ZM67.1229 58.9145C70.5827 59.1708 73.1426 59.304 74.7586 59.304V55.304C73.3026 55.304 70.8705 55.1812 67.4183 54.9255L67.1229 58.9145ZM74.7586 59.304C76.5421 59.304 77.7792 59.845 78.6879 60.797L81.5813 58.035C79.802 56.171 77.4551 55.304 74.7586 55.304V59.304ZM78.7204 60.8302C79.637 61.7468 80.2466 63.2115 80.2466 65.56H84.2466C84.2466 62.5325 83.4482 59.9012 81.5488 58.0018L78.7204 60.8302ZM80.2466 65.56C80.2466 67.7789 79.7603 70.4729 78.7136 73.6745L82.5156 74.9175C83.6449 71.4631 84.2466 68.3331 84.2466 65.56H80.2466ZM78.7136 73.6745C77.69 76.8056 76.2533 79.5815 74.4113 82.0178L77.6019 84.4302C79.7278 81.6185 81.3632 78.4424 82.5156 74.9175L78.7136 73.6745ZM74.4066 82.024C72.7757 84.1986 70.2912 85.9503 66.7919 87.1958L68.1332 90.9642C72.186 89.5217 75.3975 87.3694 77.6066 84.424L74.4066 82.024ZM66.8106 87.1893C63.3385 88.3865 59.4349 89 55.0786 89V93C59.8102 93 64.1627 92.3335 68.1146 90.9707L66.8106 87.1893ZM55.0786 89C51.5217 89 48.0946 88.428 44.7876 87.2856L43.4816 91.0664C47.2146 92.356 51.0835 93 55.0786 93V89ZM44.7876 87.2856C41.4866 86.1452 38.7922 84.5784 36.6558 82.6153L33.9493 85.5607C36.549 87.9496 39.7426 89.7748 43.4816 91.0664L44.7876 87.2856ZM36.6684 82.6269C33.9207 80.0585 31.7361 77.01 30.1132 73.4638L26.476 75.1282C28.3091 79.134 30.7965 82.6135 33.9368 85.5491L36.6684 82.6269ZM30.1297 73.5008C28.5626 69.8845 27.7986 66.3462 27.7986 62.872H23.7986C23.7986 66.9498 24.6985 71.0275 26.4595 75.0912L30.1297 73.5008ZM27.7986 62.872C27.7986 57.6907 29.0008 52.6484 31.4319 47.7256L27.8453 45.9544C25.1564 51.3996 23.7986 57.0453 23.7986 62.872H27.7986ZM31.4275 47.7344C33.9111 42.7671 37.205 38.9881 41.2911 36.3232L39.1061 32.9728C34.3602 36.0679 30.6141 40.4169 27.8497 45.9456L31.4275 47.7344ZM41.308 36.3121C42.9563 35.2132 45.3932 34.2279 48.7307 33.4244L47.7945 29.5356C44.22 30.3961 41.2809 31.5228 39.0892 32.9839L41.308 36.3121ZM48.7307 33.4244C52.0676 32.6211 55.0759 32.232 57.7666 32.232V28.232C54.6973 28.232 51.3696 28.6749 47.7945 29.5356L48.7307 33.4244ZM57.7666 32.232C62.0398 32.232 65.706 32.9036 68.8078 34.1912L70.3414 30.4968C66.6592 28.9684 62.4534 28.232 57.7666 28.232V32.232ZM68.8379 34.2034C71.9284 35.4279 74.1801 37.1583 75.7121 39.3469L78.9891 37.0531C76.9371 34.1217 74.0048 31.9481 70.3113 30.4846L68.8379 34.2034ZM75.6865 39.3094C76.3462 40.299 76.5026 40.9319 76.5026 41.272H80.5026C80.5026 39.8201 79.891 38.405 79.0147 37.0906L75.6865 39.3094ZM76.5026 41.272C76.5026 41.6455 76.3597 42.1225 75.7444 42.7378L78.5728 45.5662C79.7495 44.3895 80.5026 42.9465 80.5026 41.272H76.5026ZM75.7444 42.7378C75.0664 43.4158 74.6491 43.496 74.4706 43.496V47.496C76.0841 47.496 77.4588 46.6802 78.5728 45.5662L75.7444 42.7378ZM74.4706 43.496C74.2981 43.496 74.0196 43.4657 73.6117 43.3637L72.6415 47.2443C73.2576 47.3983 73.875 47.496 74.4706 47.496V43.496ZM73.6117 43.3637C73.4282 43.3178 73.303 43.2748 73.2238 43.2418C73.142 43.2078 73.137 43.1958 73.1746 43.224L70.7746 46.424C71.3382 46.8467 72.0174 47.0882 72.6415 47.2443L73.6117 43.3637Z" fill="#07613A" mask="url(#path-2-outside-1_250_901)"/>
<circle cx="21.7232" cy="18.9055" r="6.02173" fill="white" stroke="#0EC173" stroke-width="2"/>
</svg>
